<svg width="114" height="32" viewBox="0 0 114 32" fill="none" xmlns="http://www.w3.org/2000/svg">
<path d="M57.6871 13.999C57.9267 14.2387 58.0466 14.5083 58.0466 14.8079V30.6262C58.0466 30.9557 57.8818 31.1205 57.5523 31.1205H55.0357C54.7062 31.1205 54.5414 30.9557 54.5414 30.6262V22.9417V20.5151V13.999C54.5414 13.4897 54.3916 13.0852 54.092 12.7856C53.7924 12.4561 53.388 12.2913 52.8787 12.2913H43.127C42.5878 12.2913 42.1683 12.4561 41.8688 12.7856C41.5692 13.0852 41.4194 13.4897 41.4194 13.999V15.6938C41.4194 16.0234 41.2546 16.1881 40.9251 16.1881H38.4085C38.079 16.1881 37.9142 16.0234 37.9142 15.6938V14.8079C37.9142 14.5083 38.034 14.2387 38.2737 13.999L42.53 9.1007C42.7397 8.89099 43.0093 8.78613 43.3389 8.78613H52.6668C52.9664 8.78613 53.2211 8.89099 53.4308 9.1007L57.6871 13.999Z" fill="white"/>
<path d="M41.5542 21.8183C41.8538 21.4887 42.3032 21.3239 42.8125 21.3239H52.9685C53.2681 21.3239 53.4479 21.2191 53.5078 21.0094C53.5977 20.7997 53.5378 20.575 53.328 20.3353L51.171 18.1333C50.9613 17.9236 50.6917 17.8187 50.3621 17.8187H43.6663C43.3667 17.8187 43.0671 17.9236 42.8574 18.1333L37.9591 22.3896C37.7194 22.6293 37.5996 22.8839 37.5996 23.1536V25.7857C37.5996 26.0853 37.7045 26.3399 37.9142 26.5496L42.8125 30.8059C43.0222 31.0157 43.2918 31.1205 43.6214 31.1205H50.3172C50.6467 31.1205 50.9164 31.0157 51.1261 30.8059L53.2831 28.604C53.4928 28.3643 53.5527 28.1396 53.4629 27.9299C53.4029 27.7202 53.2232 27.6153 52.9236 27.6153H42.7675C41.659 27.6153 41.1048 27.0611 41.1048 25.9526V23.0316C41.1048 22.5223 41.2546 22.1179 41.5542 21.8183Z" fill="white"/>
<path d="M62.8792 30.6389V5.16792C62.8792 4.65861 62.7144 4.25417 62.3849 3.95458C62.0853 3.65499 61.6808 3.5052 61.1715 3.5052H58.655C58.3254 3.5052 58.1606 3.34042 58.1606 3.01087V0.494324C58.1606 0.164775 58.3254 0 58.655 0H60.3177C60.6472 0 60.9169 0.104857 61.1266 0.31457L65.9799 5.21285C66.2196 5.45253 66.3394 5.72216 66.3394 6.02175V30.6389C66.3394 30.9684 66.1747 31.1332 65.8451 31.1332H63.3735C63.044 31.1332 62.8792 30.9684 62.8792 30.6389Z" fill="white"/>
<path d="M77.1135 31.1205C76.784 31.1205 76.5144 31.0157 76.3047 30.8059L71.4064 25.9077C71.1967 25.6979 71.0918 25.4283 71.0918 25.0988V9.28045C71.0918 8.95091 71.2566 8.78613 71.5861 8.78613H74.1027C74.4023 8.78613 74.5521 8.95091 74.5521 9.28045V25.9526C74.5521 26.4619 74.7018 26.8663 75.0014 27.1659C75.331 27.4655 75.7504 27.6153 76.2597 27.6153H85.5938C86.1031 27.6153 86.5225 27.4655 86.852 27.1659C87.1516 26.8663 87.3014 26.4619 87.3014 25.9526V9.28045C87.3014 8.95091 87.4512 8.78613 87.7508 8.78613H90.2674C90.5969 8.78613 90.7617 8.95091 90.7617 9.28045V25.0988C90.7617 25.4283 90.6568 25.6979 90.4471 25.9077L85.5488 30.8059C85.3391 31.0157 85.0695 31.1205 84.7399 31.1205H84.6879H77.1656H77.1135Z" fill="white"/>
<path d="M94.7662 17.1126L99.6645 21.3689C99.8743 21.5786 100.144 21.6835 100.473 21.6835L108.742 21.6835H108.832C109.341 21.6835 109.746 21.8332 110.045 22.1328C110.345 22.4624 110.495 22.8818 110.495 23.3911V25.9077C110.495 26.417 110.345 26.8214 110.045 27.121C109.746 27.4505 109.341 27.6153 108.832 27.6153H99.9342C99.4249 27.6153 99.0204 27.4505 98.7208 27.121C98.3913 26.8214 98.2265 26.417 98.2265 25.9077V23.5709C98.2265 23.2413 98.0617 23.0765 97.7322 23.0765H95.2156C94.8861 23.0765 94.7213 23.2413 94.7213 23.5709V25.7407C94.7213 26.0403 94.8411 26.31 95.0808 26.5496L99.9791 30.8059C100.189 31.0157 100.458 31.1205 100.788 31.1205H107.978C108.278 31.1205 108.532 31.0157 108.742 30.8059L113.64 26.5496C113.88 26.31 114 26.0553 114 25.7857V23.603C114 23.3034 113.88 23.0337 113.64 22.7941L108.742 18.5378C108.532 18.3281 108.263 18.2232 107.933 18.2232H99.5747C99.0653 18.2232 98.6609 18.0734 98.3613 17.7738C98.0617 17.4443 97.9119 17.0248 97.9119 16.5155V13.999C97.9119 13.4897 98.0617 13.0852 98.3613 12.7856C98.6609 12.4561 99.0653 12.2913 99.5747 12.2913H108.472C108.982 12.2913 109.386 12.4561 109.686 12.7856C110.015 13.0852 110.18 13.4897 110.18 13.999V16.3358C110.18 16.6653 110.345 16.8301 110.674 16.8301H113.191C113.521 16.8301 113.685 16.6653 113.685 16.3358V14.8079C113.685 14.5083 113.565 14.2387 113.326 13.999L108.428 9.1007C108.218 8.89099 107.948 8.78613 107.619 8.78613H100.428C100.129 8.78613 99.8743 8.89099 99.6645 9.1007L94.7662 13.357C94.5266 13.5967 94.4067 13.8513 94.4067 14.121V16.3037C94.4067 16.6033 94.5266 16.8729 94.7662 17.1126Z" fill="white"/>
<path d="M19.6851 1.13591L19.6851 19.911C19.6851 21.0193 19.3266 21.8994 18.6094 22.5513C17.9575 23.2033 17.0773 23.5292 15.969 23.5292L10.4927 23.5292C9.77556 23.5292 9.41699 23.8878 9.41699 24.605L9.41699 30.0813C9.41699 30.7984 9.77556 31.157 10.4927 31.157L14.111 31.157C14.8281 31.157 15.4149 30.9288 15.8712 30.4725L26.4327 19.8132C26.9543 19.2916 27.2151 18.7049 27.2151 18.0529L27.2151 1.13591C27.2151 0.418768 26.8565 0.0601936 26.1394 0.0601936L20.7608 0.0601931C20.0437 0.060193 19.6851 0.418767 19.6851 1.13591Z" fill="white"/>
<path d="M7.53021 30.0815V11.3065C7.53021 10.1982 7.88878 9.31804 8.60592 8.66609C9.25786 8.01415 10.138 7.68818 11.2463 7.68818H16.7226C17.4398 7.68818 17.7983 7.32961 17.7983 6.61247V1.13614C17.7983 0.418996 17.4398 0.0604248 16.7226 0.0604248H13.1043C12.3872 0.0604248 11.8004 0.288606 11.3441 0.744969L0.782585 11.4043C0.261028 11.9258 0.000249863 12.5126 0.000249863 13.1645V30.0815C0.000249863 30.7987 0.358814 31.1572 1.07595 31.1572H6.4545C7.17164 31.1572 7.53021 30.7987 7.53021 30.0815Z" fill="white"/>
</svg>
